<mxfile host="drawio-plugin" modified="2021-07-22T23:58:00.634Z" agent="5.0 (Windows NT 6.2; Win64; x64) AppleWebKit/537.36 (KHTML, like Gecko) Chrome/89.0.4389.90 Safari/537.36" etag="LZw0usGVhPgri2xxXriL" version="14.7.4" type="embed"><diagram id="23iRSUPoRavnBvh4doch" name="Page-1"><mxGraphModel dx="1736" dy="1103" grid="1" gridSize="10" guides="1" tooltips="1" connect="1" arrows="1" fold="1" page="1" pageScale="1" pageWidth="827" pageHeight="1169" math="0" shadow="0"><root><mxCell id="0"/><mxCell id="1" parent="0"/><mxCell id="6" style="edgeStyle=orthogonalEdgeStyle;rounded=0;orthogonalLoop=1;jettySize=auto;html=1;exitX=0.5;exitY=1;exitDx=0;exitDy=0;entryX=0.25;entryY=0;entryDx=0;entryDy=0;sketch=1;endArrow=ERmany;endFill=0;" edge="1" parent="1" source="2" target="4"><mxGeometry relative="1" as="geometry"/></mxCell><mxCell id="2" value="LANGUAGE" style="rounded=1;whiteSpace=wrap;html=1;sketch=1;" vertex="1" parent="1"><mxGeometry x="280" y="190" width="120" height="60" as="geometry"/></mxCell><mxCell id="5" style="edgeStyle=orthogonalEdgeStyle;rounded=0;orthogonalLoop=1;jettySize=auto;html=1;exitX=0.5;exitY=1;exitDx=0;exitDy=0;entryX=0.75;entryY=0;entryDx=0;entryDy=0;sketch=1;endArrow=ERmany;endFill=0;" edge="1" parent="1" source="3" target="4"><mxGeometry relative="1" as="geometry"/></mxCell><mxCell id="3" value="DISCIPLINE" style="rounded=1;whiteSpace=wrap;html=1;sketch=1;" vertex="1" parent="1"><mxGeometry x="440" y="190" width="120" height="60" as="geometry"/></mxCell><mxCell id="8" style="edgeStyle=orthogonalEdgeStyle;rounded=0;sketch=1;orthogonalLoop=1;jettySize=auto;html=1;exitX=0.5;exitY=1;exitDx=0;exitDy=0;entryX=0.5;entryY=0;entryDx=0;entryDy=0;endArrow=ERmany;endFill=0;" edge="1" parent="1" source="4" target="7"><mxGeometry relative="1" as="geometry"/></mxCell><mxCell id="18" style="edgeStyle=orthogonalEdgeStyle;rounded=0;sketch=1;orthogonalLoop=1;jettySize=auto;html=1;exitX=0.5;exitY=1;exitDx=0;exitDy=0;entryX=0;entryY=0.5;entryDx=0;entryDy=0;endArrow=ERmany;endFill=0;" edge="1" parent="1" source="4" target="17"><mxGeometry relative="1" as="geometry"/></mxCell><mxCell id="20" style="edgeStyle=orthogonalEdgeStyle;rounded=0;sketch=1;orthogonalLoop=1;jettySize=auto;html=1;exitX=0.5;exitY=1;exitDx=0;exitDy=0;entryX=0;entryY=0.5;entryDx=0;entryDy=0;endArrow=ERmany;endFill=0;" edge="1" parent="1" source="4" target="15"><mxGeometry relative="1" as="geometry"/></mxCell><mxCell id="22" style="edgeStyle=orthogonalEdgeStyle;rounded=0;sketch=1;orthogonalLoop=1;jettySize=auto;html=1;exitX=0.5;exitY=1;exitDx=0;exitDy=0;entryX=0;entryY=0.5;entryDx=0;entryDy=0;endArrow=ERmany;endFill=0;" edge="1" parent="1" source="4" target="21"><mxGeometry relative="1" as="geometry"/></mxCell><mxCell id="4" value="RULEBOOK" style="rounded=1;whiteSpace=wrap;html=1;sketch=1;" vertex="1" parent="1"><mxGeometry x="360" y="320" width="120" height="60" as="geometry"/></mxCell><mxCell id="10" style="edgeStyle=orthogonalEdgeStyle;rounded=0;sketch=1;orthogonalLoop=1;jettySize=auto;html=1;exitX=0.5;exitY=1;exitDx=0;exitDy=0;entryX=0.5;entryY=0;entryDx=0;entryDy=0;endArrow=ERmany;endFill=0;" edge="1" parent="1" source="7" target="9"><mxGeometry relative="1" as="geometry"/></mxCell><mxCell id="7" value="CHAPTER" style="rounded=1;whiteSpace=wrap;html=1;sketch=1;" vertex="1" parent="1"><mxGeometry x="160" y="470" width="120" height="60" as="geometry"/></mxCell><mxCell id="12" style="edgeStyle=orthogonalEdgeStyle;rounded=0;sketch=1;orthogonalLoop=1;jettySize=auto;html=1;exitX=0.5;exitY=1;exitDx=0;exitDy=0;entryX=0.5;entryY=0;entryDx=0;entryDy=0;endArrow=ERmany;endFill=0;" edge="1" parent="1" source="9" target="11"><mxGeometry relative="1" as="geometry"/></mxCell><mxCell id="9" value="SECTION" style="rounded=1;whiteSpace=wrap;html=1;sketch=1;" vertex="1" parent="1"><mxGeometry x="160" y="590" width="120" height="60" as="geometry"/></mxCell><mxCell id="14" style="edgeStyle=orthogonalEdgeStyle;rounded=0;sketch=1;orthogonalLoop=1;jettySize=auto;html=1;exitX=0.5;exitY=1;exitDx=0;exitDy=0;entryX=0.5;entryY=0;entryDx=0;entryDy=0;endArrow=ERmany;endFill=0;" edge="1" parent="1" source="11" target="13"><mxGeometry relative="1" as="geometry"/></mxCell><mxCell id="11" value="RULE" style="rounded=1;whiteSpace=wrap;html=1;sketch=1;" vertex="1" parent="1"><mxGeometry x="160" y="710" width="120" height="60" as="geometry"/></mxCell><mxCell id="13" value="SUBRULE" style="rounded=1;whiteSpace=wrap;html=1;sketch=1;" vertex="1" parent="1"><mxGeometry x="160" y="830" width="120" height="60" as="geometry"/></mxCell><mxCell id="15" value="APPENDIX" style="rounded=1;whiteSpace=wrap;html=1;sketch=1;" vertex="1" parent="1"><mxGeometry x="560" y="430" width="120" height="60" as="geometry"/></mxCell><mxCell id="17" value="GLOSSARY" style="rounded=1;whiteSpace=wrap;html=1;sketch=1;" vertex="1" parent="1"><mxGeometry x="560" y="550" width="120" height="60" as="geometry"/></mxCell><mxCell id="21" value="INDEX" style="rounded=1;whiteSpace=wrap;html=1;sketch=1;" vertex="1" parent="1"><mxGeometry x="560" y="670" width="120" height="60" as="geometry"/></mxCell></root></mxGraphModel></diagram></mxfile>